<svg width="150" height="48" viewBox="0 0 150 48" fill="none" xmlns="http://www.w3.org/2000/svg">
<path d="M47.64 8H54.12C56.3067 8 57.9467 8.58667 59.04 9.76C60.1333 10.9333 60.68 12.6533 60.68 14.92V17.68C60.68 19.9467 60.1333 21.6667 59.04 22.84C57.9467 24.0133 56.3067 24.6 54.12 24.6H52.04V36H47.64V8ZM54.12 20.6C54.84 20.6 55.3733 20.4 55.72 20C56.0933 19.6 56.28 18.92 56.28 17.96V14.64C56.28 13.68 56.0933 13 55.72 12.6C55.3733 12.2 54.84 12 54.12 12H52.04V20.6H54.12ZM65.0634 8H71.0234L75.5834 36H71.1834L70.3834 30.44V30.52H65.3834L64.5834 36H60.5034L65.0634 8ZM69.8634 26.72L67.9034 12.88H67.8234L65.9034 26.72H69.8634ZM77.7181 8H84.2381C86.5048 8 88.1581 8.53333 89.1981 9.6C90.2381 10.64 90.7581 12.2533 90.7581 14.44V16.16C90.7581 19.0667 89.7981 20.9067 87.8781 21.68V21.76C88.9448 22.08 89.6915 22.7333 90.1181 23.72C90.5715 24.7067 90.7981 26.0267 90.7981 27.68V32.6C90.7981 33.4 90.8248 34.0533 90.8781 34.56C90.9315 35.04 91.0648 35.52 91.2781 36H86.7981C86.6381 35.5467 86.5315 35.12 86.4781 34.72C86.4248 34.32 86.3981 33.6 86.3981 32.56V27.44C86.3981 26.16 86.1848 25.2667 85.7581 24.76C85.3581 24.2533 84.6515 24 83.6381 24H82.1181V36H77.7181V8ZM83.7181 20C84.5981 20 85.2515 19.7733 85.6781 19.32C86.1315 18.8667 86.3581 18.1067 86.3581 17.04V14.88C86.3581 13.8667 86.1715 13.1333 85.7981 12.68C85.4515 12.2267 84.8915 12 84.1181 12H82.1181V20H83.7181ZM93.8509 8H98.2509V19.8L103.851 8H108.251L103.011 18.28L108.331 36H103.731L100.011 23.52L98.2509 27.08V36H93.8509V8ZM110.413 8H114.813V36H110.413V8ZM118.109 8H123.629L127.909 24.76H127.989V8H131.909V36H127.389L122.109 15.56H122.029V36H118.109V8ZM141.419 36.4C139.286 36.4 137.659 35.8 136.539 34.6C135.419 33.3733 134.859 31.6267 134.859 29.36V14.64C134.859 12.3733 135.419 10.64 136.539 9.44C137.659 8.21333 139.286 7.6 141.419 7.6C143.552 7.6 145.179 8.21333 146.299 9.44C147.419 10.64 147.979 12.3733 147.979 14.64V17.04H143.819V14.36C143.819 12.52 143.059 11.6 141.539 11.6C140.019 11.6 139.259 12.52 139.259 14.36V29.68C139.259 31.4933 140.019 32.4 141.539 32.4C143.059 32.4 143.819 31.4933 143.819 29.68V24.2H141.619V20.2H147.979V29.36C147.979 31.6267 147.419 33.3733 146.299 34.6C145.179 35.8 143.552 36.4 141.419 36.4Z" fill="black"/>
<path d="M33.1967 11.7254C32.855 10.7175 31.8983 10 30.7708 10H11.9792C10.8517 10 9.91208 10.7175 9.55333 11.7254L6 21.9583V35.625C6 36.5646 6.76875 37.3333 7.70833 37.3333H9.41667C10.3563 37.3333 11.125 36.5646 11.125 35.625V33.9167H31.625V35.625C31.625 36.5646 32.3938 37.3333 33.3333 37.3333H35.0417C35.9813 37.3333 36.75 36.5646 36.75 35.625V21.9583L33.1967 11.7254ZM11.9792 28.7917C10.5613 28.7917 9.41667 27.6471 9.41667 26.2292C9.41667 24.8113 10.5613 23.6667 11.9792 23.6667C13.3971 23.6667 14.5417 24.8113 14.5417 26.2292C14.5417 27.6471 13.3971 28.7917 11.9792 28.7917ZM30.7708 28.7917C29.3529 28.7917 28.2083 27.6471 28.2083 26.2292C28.2083 24.8113 29.3529 23.6667 30.7708 23.6667C32.1888 23.6667 33.3333 24.8113 33.3333 26.2292C33.3333 27.6471 32.1888 28.7917 30.7708 28.7917ZM9.41667 20.25L11.9792 12.5625H30.7708L33.3333 20.25H9.41667Z" fill="#F8D73A"/>
</svg>
